<svg xmlns="http://www.w3.org/2000/svg" width="100" height="100" viewBox="0 0 100 100">
    <defs>
        <linearGradient id="a" x1="84.179%" x2="33.179%" y1="0%" y2="100%">
            <stop offset="0%" stop-color="#44D1FF"/>
            <stop offset="100%" stop-color="#50E3C2"/>
        </linearGradient>
        <linearGradient id="b" x1="100%" x2="6.34%" y1="-18.254%" y2="120.106%">
            <stop offset="0%" stop-color="#44D1FF"/>
            <stop offset="100%" stop-color="#50E3C2"/>
        </linearGradient>
    </defs>
    <g fill="none" fill-rule="evenodd">
        <rect width="98" height="98" x="1" y="1" stroke="url(#a)" stroke-width="2" rx="49"/>
        <path fill="url(#b)" fill-rule="nonzero" d="M56.333 54.429c0-8.127-6.568-14.715-14.667-14.715S27 46.302 27 54.43c0 8.126 6.567 14.714 14.666 14.714 8.1 0 14.667-6.587 14.667-14.714zm2 0c0 9.23-7.46 16.714-16.667 16.714C32.462 71.143 25 63.658 25 54.429c0-9.23 7.462-16.715 16.666-16.715 9.205 0 16.667 7.485 16.667 16.715zM62.14 24H33.833c-.89 0-1.611.724-1.611 1.619v11.786h-2V25.619A3.614 3.614 0 0 1 33.833 22H62.97L74 33.063V75.38A3.614 3.614 0 0 1 70.389 79H33.833a3.614 3.614 0 0 1-3.611-3.619v-3.929h2v3.929c0 .895.721 1.619 1.611 1.619H70.39c.89 0 1.61-.724 1.61-1.619V33.89L62.14 24zm6.943 9.786v2H60.25v-8.857h2v6.857h6.833zM48.716 46.905L39.01 59.168l-3.538-3.9-1.481 1.343 4.33 4.774a1 1 0 0 0 1.525-.05l10.438-13.189-1.568-1.241z"/>
    </g>
</svg>
