<svg xmlns="http://www.w3.org/2000/svg" width="100" height="100" viewBox="0 0 100 100">
    <defs>
        <linearGradient id="a" x1="84.179%" x2="33.179%" y1="0%" y2="100%">
            <stop offset="0%" stop-color="#44D1FF"/>
            <stop offset="100%" stop-color="#50E3C2"/>
        </linearGradient>
        <linearGradient id="b" x1="100%" x2="6.34%" y1="-18.254%" y2="120.106%">
            <stop offset="0%" stop-color="#44D1FF"/>
            <stop offset="100%" stop-color="#50E3C2"/>
        </linearGradient>
    </defs>
    <g fill="none" fill-rule="evenodd">
        <rect width="98" height="98" x="1" y="1" stroke="url(#a)" stroke-width="2" rx="49"/>
        <path fill="url(#b)" fill-rule="nonzero" d="M26.293 41.93h39.073v2H26.293v35.465h-2V33.814a2.298 2.298 0 0 1 2.292-2.302h41.366a2.298 2.298 0 0 1 2.293 2.302v29.953h-2V33.814a.298.298 0 0 0-.293-.302H26.585a.298.298 0 0 0-.292.302v8.116zm6.463-12.023h-2v-2.605A2.298 2.298 0 0 1 33.05 25h41.366a2.298 2.298 0 0 1 2.292 2.302V53.35h-2V27.302a.298.298 0 0 0-.292-.302H33.049a.298.298 0 0 0-.293.302v2.605zm-3.585 8.814v-2h2.585v2h-2.585zm5.17 0v-2h2.586v2H34.34zm5.171 0v-2h2.586v2h-2.586zm28.732 27.651h2v2.605h-2v-2.605zm6.463-5.21h2v2.605h-2v-2.604zm0-5.209h2v2.605h-2v-2.605zm-14.421-.136a1 1 0 0 1 1.31.542l2.11 5.13a1 1 0 0 1-.54 1.304l-3.228 1.346c.096.924.095 1.853-.003 2.775l3.23 1.348a1 1 0 0 1 .54 1.303l-2.11 5.13a1 1 0 0 1-1.31.543l-3.222-1.345a13.138 13.138 0 0 1-1.94 1.956l1.34 3.258a1 1 0 0 1-.54 1.303l-5.092 2.125a1 1 0 0 1-1.31-.543l-1.336-3.25c-.912.095-1.829.094-2.738-.003l-1.337 3.253a1 1 0 0 1-1.31.542l-5.092-2.125a1 1 0 0 1-.54-1.303l1.34-3.26a13.166 13.166 0 0 1-1.943-1.954l-3.222 1.344a1 1 0 0 1-1.31-.542l-2.11-5.13a1 1 0 0 1 .54-1.303l3.229-1.347a13.306 13.306 0 0 1 .003-2.774l-3.232-1.349a1 1 0 0 1-.54-1.303l2.11-5.13a1 1 0 0 1 1.31-.542l3.224 1.346a13.143 13.143 0 0 1 1.94-1.957l-1.34-3.258a1 1 0 0 1 .54-1.303L42.8 48.52a1 1 0 0 1 1.31.542l1.336 3.252a13.042 13.042 0 0 1 2.737.003l1.338-3.255a1 1 0 0 1 1.31-.542l5.092 2.125a1 1 0 0 1 .54 1.303l-1.342 3.26a13.143 13.143 0 0 1 1.944 1.954l3.22-1.344zm-.158 2.233l-3.008 1.255a1 1 0 0 1-1.202-.345 11.151 11.151 0 0 0-2.597-2.613 1 1 0 0 1-.34-1.192l1.253-3.048-3.246-1.355-1.249 3.04a1 1 0 0 1-1.09.605 11.053 11.053 0 0 0-3.669-.004 1 1 0 0 1-1.09-.606l-1.248-3.035-3.246 1.355 1.252 3.045a1 1 0 0 1-.342 1.193 11.151 11.151 0 0 0-2.593 2.616 1 1 0 0 1-1.201.345L33.5 58.05l-1.35 3.28 3.023 1.261a1 1 0 0 1 .601 1.087 11.314 11.314 0 0 0-.004 3.701 1 1 0 0 1-.601 1.086l-3.018 1.26 1.349 3.28 3.008-1.256a1 1 0 0 1 1.201.345 11.176 11.176 0 0 0 2.598 2.613 1 1 0 0 1 .341 1.192l-1.253 3.049 3.246 1.355 1.25-3.039a1 1 0 0 1 1.09-.606c1.215.205 2.45.208 3.668.003a1 1 0 0 1 1.09.606l1.248 3.036 3.246-1.354-1.253-3.046a1 1 0 0 1 .341-1.192 11.151 11.151 0 0 0 2.594-2.617 1 1 0 0 1 1.201-.345l3.011 1.257 1.35-3.28-3.021-1.26a1 1 0 0 1-.602-1.087c.204-1.228.207-2.475.003-3.702a1 1 0 0 1 .601-1.087l3.018-1.26-1.349-3.28zm-7.443 5.033c1.34 3.26-.196 6.996-3.436 8.35-3.244 1.353-6.964-.2-8.305-3.463-1.34-3.26.197-6.997 3.436-8.348 3.244-1.355 6.964.197 8.305 3.46zm-1.85.76c-.92-2.24-3.465-3.302-5.684-2.376-2.223.927-3.28 3.499-2.357 5.743.92 2.24 3.466 3.303 5.684 2.377 2.223-.928 3.28-3.5 2.358-5.744z"/>
    </g>
</svg>
