<svg xmlns="http://www.w3.org/2000/svg" width="100" height="100" viewBox="0 0 100 100">
    <defs>
        <linearGradient id="a" x1="84.179%" x2="33.179%" y1="0%" y2="100%">
            <stop offset="0%" stop-color="#44D1FF"/>
            <stop offset="100%" stop-color="#50E3C2"/>
        </linearGradient>
        <linearGradient id="b" x1="100%" x2="6.34%" y1="-18.254%" y2="120.106%">
            <stop offset="0%" stop-color="#44D1FF"/>
            <stop offset="100%" stop-color="#50E3C2"/>
        </linearGradient>
    </defs>
    <g fill="none" fill-rule="evenodd">
        <rect width="98" height="98" x="1" y="1" stroke="url(#a)" stroke-width="2" rx="49"/>
        <path fill="url(#b)" fill-rule="nonzero" d="M54.87 38.557l7.801 6.253-1.25 1.56-7.817-6.265-8.054 2.973-.692-1.876 8.039-2.968 1.574-9.555 1.973.325-1.573 9.553zM37.434 73.31c.68-.582 1.476-.889 2.59-.889h18.136c.227 0 2.276-1.645 4.659-3.889 1.93-1.818 4.298-4.205 4.954-4.95 1.096-1.244 4.71-6.918 6.032-9.62-.795-.596-2.25-.9-3.757-.545-1.793.422-2.964 1.661-4.519 4.723a1 1 0 0 1-.426.433l-4.815 2.53c.715 2.448-.858 5.451-4.719 5.451H45.205v-2h10.363c3.849 0 3.849-4.555 0-4.555h-6.845c-.502 0-.96-.203-1.522-.578a12.257 12.257 0 0 1-.63-.457c-.12-.09-.544-.42-.626-.483-.512-.392-.867-.639-1.202-.822-.351-.192-.63-.282-.834-.282h-6.477c-1.224 0-3.105 1.037-4.47 2.325l-4.488 4.541 8.959 9.067zm1.413 1.43l1.888 1.912a1 1 0 0 1 0 1.405l-6.477 6.556a1 1 0 0 1-1.423 0L17.29 68.879a1 1 0 0 1 0-1.406l6.477-6.556a1 1 0 0 1 1.423 0l1.88 1.903 2.59-2.623 1.905-1.927c1.727-1.629 4.02-2.894 5.868-2.894h6.477c.59 0 1.174.188 1.794.528.447.244.872.539 1.459.99 1.177.903 1.479 1.104 1.561 1.104h6.845c1.656 0 2.891.553 3.705 1.377l4.618-2.426c1.734-3.34 3.268-4.908 5.698-5.48 2.542-.597 5.099.169 6.217 1.693a1 1 0 0 1 .115.98c-1.075 2.547-5.322 9.256-6.648 10.762-2.87 3.255-9.519 9.516-11.114 9.516H40.023c-.539 0-.875.098-1.177.32zm-5.3 7.747l5.07-5.133-14.139-14.31-5.071 5.133 14.14 14.31zm-9.78-13.607l1.423-1.406 2.59 2.622-1.422 1.406-2.591-2.622zM68.44 34.75l-1.874 12.792c-.142.974-.654 1.538-1.634 1.924l-12.06 4.744c-.779.306-1.323.084-2.054-.51l-9.97-8.09c-.685-.557-.906-1.44-.775-2.384l1.84-12.56a2.313 2.313 0 0 1 1.744-1.916l1.765-.696 4.04-1.592 4.039-1.592 1.33-.525.31-.122.22-.087c.768-.279 1.671-.12 2.27.368l9.969 8.088c.613.497.95 1.409.84 2.158zM64.2 47.606c.353-.139.356-.143.387-.352l1.874-12.792c.01-.065-.067-.272-.12-.315l-9.97-8.09c-.06-.047-.225-.077-.325-.04-.168.08-.25.108-.48.19l-1.332.525-4.039 1.592-4.04 1.592-1.836.724-.17.05a.315.315 0 0 0-.256.266l-1.84 12.554c-.043.312.006.507.055.548l9.971 8.09c.085.069.148.117.194.15l11.926-4.692z"/>
    </g>
</svg>
