<svg xmlns="http://www.w3.org/2000/svg" width="100" height="100" viewBox="0 0 100 100">
    <defs>
        <linearGradient id="a" x1="84.179%" x2="33.179%" y1="0%" y2="100%">
            <stop offset="0%" stop-color="#44D1FF"/>
            <stop offset="100%" stop-color="#50E3C2"/>
        </linearGradient>
        <linearGradient id="b" x1="100%" x2="6.34%" y1="-18.254%" y2="120.106%">
            <stop offset="0%" stop-color="#44D1FF"/>
            <stop offset="100%" stop-color="#50E3C2"/>
        </linearGradient>
    </defs>
    <g fill="none" fill-rule="evenodd">
        <rect width="98" height="98" x="1" y="1" stroke="url(#a)" stroke-width="2" rx="49"/>
        <path fill="url(#b)" fill-rule="nonzero" d="M48.882 76.605l-3.5-3.483 1.41-1.418 5.93 5.9-5.93 5.9-1.41-1.417 3.499-3.482h-.085C31.712 78.605 19 70.667 19 60.084c0-4.637 1.013-7.71 4.056-10.354l1.312 1.51C21.834 53.441 21 55.97 21 60.083c0 9.23 11.677 16.521 27.796 16.521h.086zM69.87 54.261V32.666l-14.957 9.158v8.717l3.156.784-.483 1.941-2.673-.665v12.835l14.905-9.127-3.103-.772.483-1.94 2.672.664zm2 1.28v1.858L54.077 68.293l-27.252-6.78V32.917l17.792-10.894 27.252 6.78V55.54zM45.782 38.21l7.965 1.981 16.07-9.84-24.035-5.98v2.615h-2V24.88l-14.906 9.127 14.906 3.707v-.343h2v.84zm-2 1.563l-14.957-3.72v21.595l2.717-1.664 1.044 1.706-3.71 2.272 24.036 5.98V52.103l-3.154-.785.482-1.94 2.672.664v-7.997l-7.13-1.774v2.29h-2v-2.788zm0 8.717v-3.333h2v3.111l1.85.46-.483 1.942-2.202-.548-3.556 2.177-1.044-1.706 3.435-2.103zm16.41 5.424l.483-1.94 3.912.973-.483 1.94-3.912-.973zm-25.485 2.478l-1.045-1.705 4.075-2.496 1.044 1.705-4.074 2.496zm9.075-26.81h2v5.192h-2v-5.192zm30.416 20.703l1.168-1.623C79.366 51.54 81 55.222 81 60.083c0 9.293-10.526 16.68-25.682 18.222l-.203-1.99C69.377 74.864 79 68.11 79 60.083c0-4.254-1.361-7.322-4.801-9.797z"/>
    </g>
</svg>
