<svg xmlns="http://www.w3.org/2000/svg" width="100" height="100" viewBox="0 0 100 100">
    <defs>
        <linearGradient id="a" x1="84.179%" x2="33.179%" y1="0%" y2="100%">
            <stop offset="0%" stop-color="#44D1FF"/>
            <stop offset="100%" stop-color="#50E3C2"/>
        </linearGradient>
        <linearGradient id="b" x1="100%" x2="6.34%" y1="-18.254%" y2="120.106%">
            <stop offset="0%" stop-color="#44D1FF"/>
            <stop offset="100%" stop-color="#50E3C2"/>
        </linearGradient>
    </defs>
    <g fill="none" fill-rule="evenodd">
        <rect width="98" height="98" x="1" y="1" stroke="url(#a)" stroke-width="2" rx="49"/>
        <path fill="url(#b)" fill-rule="nonzero" d="M55.217 72.595l3.513-3.493 1.41 1.418-5.923 5.89-5.922-5.89 1.41-1.418 3.512 3.493v-19.65h2v19.65zM43.478 52.756v20.947h-2V52.756l-3.512 3.494-1.41-1.418 5.922-5.891 5.923 5.89-1.41 1.419-3.513-3.494zm-13.82-9.186h-.157C24.213 43.577 20 47.774 20 52.946c0 5.178 4.223 9.378 9.435 9.378h9.13v2h-9.13C23.12 64.324 18 59.231 18 52.946c0-5.951 4.592-10.834 10.44-11.336a12.248 12.248 0 0 1-.005-.34c0-8.434 6.873-15.27 15.348-15.27 5.756 0 10.926 3.19 13.556 8.133.779-.23 1.593-.35 2.422-.35 4.467 0 8.13 3.43 8.474 7.79a9.49 9.49 0 0 1 .33-.005C74.88 41.568 80 46.66 80 52.946c0 6.285-5.121 11.378-11.435 11.378H58.13v-2h10.435c5.212 0 9.435-4.2 9.435-9.378 0-5.179-4.223-9.378-9.435-9.378-.37 0-.757.028-1.198.085l-1.193.153.068-1.2.008-.131c.009-.137.01-.187.01-.232 0-3.566-2.908-6.46-6.5-6.46-.87 0-1.718.172-2.505.499-1.103.572-2.064 1.596-2.674 2.835l-1.794-.883c.645-1.312 1.601-2.447 2.743-3.242A13.342 13.342 0 0 0 43.783 28c-7.373 0-13.348 5.943-13.348 13.27 0 .112.002.225.006.341 1.134.099 2.238.364 3.282.784l-.747 1.855a9.449 9.449 0 0 0-3.317-.68z"/>
    </g>
</svg>
